<svg id="Ebene_1" data-name="Ebene 1" xmlns="http://www.w3.org/2000/svg" viewBox="0 0 465.69 106.64"><defs><style>.cls-1{fill:#fff;}</style></defs><title>Name_MATAR</title><path class="cls-1" d="M4416.47,432.28h0.44l25.56-87h19V451.91h-14.79V375.08l-0.44-.07-24.46,76.9h-10.18l-24.83-78.08-0.44.07v78h-14.79V345.27H4391Z" transform="translate(-4371.57 -345.27)"/><path class="cls-1" d="M4544.92,425h-31.86l-7.69,27h-15.45l32-106.64h14.43l31.71,106.64h-15.45Zm-28.49-11.79h25.2l-12.3-43.36h-0.44Z" transform="translate(-4371.57 -345.27)"/><path class="cls-1" d="M4649.64,356.69h-28.27v95.21h-14.94V356.69h-28.05V345.27h71.27v11.43Z" transform="translate(-4371.57 -345.27)"/><path class="cls-1" d="M4718.77,425h-31.86l-7.69,27h-15.45l32-106.64h14.43l31.71,106.64h-15.45Zm-28.49-11.79h25.2l-12.3-43.36h-0.44Z" transform="translate(-4371.57 -345.27)"/><path class="cls-1" d="M4783.94,406v45.92h-14.87V345.34h31.42q15.38,0,23.77,7.84t8.39,22.49a27,27,0,0,1-3.92,14.61,25.84,25.84,0,0,1-11.24,9.7q8.2,2.78,11.83,9.23t3.63,16v9.3a41.81,41.81,0,0,0,1,9.16,12.82,12.82,0,0,0,3.37,6.59v1.68H4822q-2.49-2.42-3.26-7.36a66.52,66.52,0,0,1-.77-10.22v-9q0-8.94-4.14-14.14t-11.46-5.2h-18.38Zm0-11.35h15.82q9.23,0,13.62-4.87t4.39-13.81q0-9.15-4.29-14.21t-13-5.05h-16.55v37.94Z" transform="translate(-4371.57 -345.27)"/></svg>