<?xml version="1.0" encoding="utf-8"?>
<!-- Generator: Adobe Illustrator 19.2.0, SVG Export Plug-In . SVG Version: 6.00 Build 0)  -->
<svg version="1.1" id="Ebene_1" xmlns="http://www.w3.org/2000/svg" xmlns:xlink="http://www.w3.org/1999/xlink" x="0px" y="0px"
	 viewBox="0 0 300 300" style="enable-background:new 0 0 300 300;" xml:space="preserve">
<style type="text/css">
	.st0{fill:#FFFFFF;}
	.st1{fill:#1D1D1B;stroke:#000000;stroke-miterlimit:10;}
	.st2{fill:#1D1D1B;}
</style>
<title>Name_MATAR</title>
<path class="st0" d="M-354-467.9h0.4l25.6-87h19v106.6h-14.8v-76.8l-0.4-0.1l-24.5,76.9h-10.2l-24.8-78.1l-0.4,0.1v78h-14.8v-106.6
	h19.5L-354-467.9z"/>
<path class="st0" d="M-225.5-475.1h-31.9l-7.7,27h-15.4l32-106.6h14.4l31.7,106.6h-15.5L-225.5-475.1z M-254-486.9h25.2l-12.3-43.4
	h-0.4L-254-486.9z"/>
<path class="st0" d="M-120.8-543.5h-28.3v95.2H-164v-95.2h-28v-11.4h71.3L-120.8-543.5L-120.8-543.5z"/>
<path class="st0" d="M-51.7-475.1h-31.9l-7.7,27h-15.5l32-106.6h14.4l31.7,106.6h-15.5L-51.7-475.1z M-80.2-486.9H-55l-12.3-43.4
	h-0.4L-80.2-486.9z"/>
<path class="st0" d="M13.5-494.1v45.9H-1.4v-106.6H30c10.3,0,18.2,2.6,23.8,7.8c5.6,5.2,8.4,12.7,8.4,22.5
	c0.1,5.1-1.2,10.2-3.9,14.6c-2.7,4.3-6.6,7.6-11.2,9.7c5.5,1.9,9.4,4.9,11.8,9.2c2.4,4.3,3.6,9.6,3.6,16v9.3c0,3.1,0.3,6.2,1,9.2
	c0.5,2.5,1.6,4.8,3.4,6.6v1.7H51.6c-1.7-1.6-2.7-4.1-3.3-7.4c-0.5-3.4-0.8-6.8-0.8-10.2v-9c0-6-1.4-10.7-4.1-14.1s-6.6-5.2-11.5-5.2
	L13.5-494.1L13.5-494.1z M13.5-505.5h15.8c6.2,0,10.7-1.6,13.6-4.9c2.9-3.2,4.4-7.8,4.4-13.8c0-6.1-1.4-10.8-4.3-14.2s-7.2-5.1-13-5
	H13.5V-505.5L13.5-505.5z"/>
<rect x="-419.9" y="-365.5" class="st1" width="508" height="145"/>
<g>
	<path class="st0" d="M-353.9-259.4h0.4l25.6-87h19v106.6h-14.8v-76.8l-0.4-0.1l-24.5,76.9h-10.2l-24.8-78.1l-0.4,0.1v78h-14.8
		v-106.6h19.4L-353.9-259.4z"/>
	<path class="st0" d="M-225.5-266.6h-31.8l-7.7,27h-15.5l32-106.6h14.4l31.7,106.6h-15.5L-225.5-266.6z M-254-278.4h25.2l-12.3-43.4
		h-0.4L-254-278.4z"/>
	<path class="st0" d="M-120.7-334.9H-149v95.2h-14.9v-95.2h-28v-11.4h71.3L-120.7-334.9L-120.7-334.9z"/>
	<path class="st0" d="M-51.6-266.6h-31.9l-7.7,27h-15.5l32-106.6h14.4l31.7,106.6h-15.5L-51.6-266.6z M-80.1-278.4h25.2l-12.3-43.4
		h-0.4L-80.1-278.4z"/>
	<path class="st0" d="M13.5-285.6v45.9H-1.4v-106.6H30c10.3,0,18.2,2.6,23.8,7.8c5.6,5.2,8.4,12.7,8.4,22.5
		c0.1,5.1-1.2,10.2-3.9,14.6c-2.7,4.3-6.6,7.6-11.2,9.7c5.5,1.9,9.4,4.9,11.8,9.2s3.6,9.6,3.6,16v9.3c0,3.1,0.3,6.2,1,9.2
		c0.5,2.5,1.6,4.8,3.4,6.6v1.7H51.6c-1.7-1.6-2.7-4.1-3.3-7.4c-0.5-3.4-0.8-6.8-0.8-10.2v-9c0-6-1.4-10.7-4.1-14.1
		s-6.6-5.2-11.5-5.2L13.5-285.6L13.5-285.6z M13.5-297h15.8c6.2,0,10.7-1.6,13.6-4.9c2.9-3.2,4.4-7.8,4.4-13.8
		c0-6.1-1.4-10.8-4.3-14.2c-2.9-3.4-7.2-5.1-13-5H13.5V-297L13.5-297z"/>
</g>
<g>
	<path class="st2" d="M-354.4-76.4h0.4l25.6-87h19v106.6h-14.7v-76.8l-0.4-0.1L-349-56.8h-10.2l-24.8-78.1l-0.4,0.1v78h-14.8v-106.6
		h19.5L-354.4-76.4z"/>
	<path class="st2" d="M-225.9-83.6h-31.9l-7.7,27h-15.4l32-106.6h14.4l31.7,106.6h-15.5L-225.9-83.6z M-254.4-95.4h25.2l-12.3-43.4
		h-0.4L-254.4-95.4z"/>
	<path class="st2" d="M-121.2-151.9h-28.3v95.2h-14.9v-95.2h-28v-11.4h71.3L-121.2-151.9L-121.2-151.9z"/>
	<path class="st2" d="M-52.1-83.6H-84l-7.7,27h-15.5l32-106.6h14.4l31.7,106.6h-15.3L-52.1-83.6z M-80.6-95.4h25.2l-12.3-43.4h-0.4
		L-80.6-95.4z"/>
	<path class="st2" d="M13.1-102.6v45.9H-1.8v-106.6h31.4c10.3,0,18.2,2.6,23.8,7.8s8.4,12.7,8.4,22.5c0.1,5.1-1.2,10.2-3.9,14.6
		c-2.7,4.3-6.6,7.6-11.2,9.7c5.5,1.9,9.4,4.9,11.8,9.2c2.4,4.3,3.6,9.6,3.6,16v9.3c0,3.1,0.3,6.2,1,9.2c0.5,2.5,1.6,4.8,3.4,6.6v1.7
		H51.2c-1.7-1.6-2.7-4.1-3.3-7.4c-0.5-3.4-0.8-6.8-0.8-10.2v-9c0-6-1.4-10.7-4.1-14.1s-6.6-5.2-11.5-5.2L13.1-102.6L13.1-102.6z
		 M13.1-114h15.8c6.2,0,10.7-1.6,13.6-4.9c2.9-3.2,4.4-7.8,4.4-13.8c0-6.1-1.4-10.8-4.3-14.2s-7.2-5.1-13-5H13.1V-114L13.1-114z"/>
</g>
<rect x="-327.4" y="1" class="st0" width="300" height="300"/>
<g>
	<path class="st2" d="M-263.8,165.5h0.2l11.7-40h8.7v49h-6.8v-35.3h-0.2l-11.2,35.3h-4.7l-11.3-35.9h-0.2v35.8h-6.8v-49h8.9
		L-263.8,165.5z"/>
	<path class="st2" d="M-204.7,162.1h-14.7l-3.5,12.4h-7.1l14.7-49h6.6l14.6,49h-7.1L-204.7,162.1z M-217.8,156.7h11.6l-5.7-19.9
		h-0.2L-217.8,156.7z"/>
	<path class="st2" d="M-156.6,130.7h-13v43.7h-6.9v-43.7h-12.9v-5.2h32.7L-156.6,130.7L-156.6,130.7z"/>
	<path class="st2" d="M-124.9,162.1h-14.6l-3.5,12.4h-7.1l14.7-49h6.6l14.6,49h-7.1L-124.9,162.1z M-138,156.7h11.6l-5.7-19.9h-0.2
		L-138,156.7z"/>
	<path class="st2" d="M-94.9,153.4v21.1h-6.8v-49h14.4c4.7,0,8.4,1.2,10.9,3.6c2.6,2.4,3.9,5.8,3.9,10.3c0.1,2.4-0.6,4.7-1.8,6.7
		s-3,3.5-5.2,4.5c2.5,0.9,4.3,2.3,5.4,4.2c1.1,2,1.7,4.4,1.7,7.4v4.3c0,1.4,0.2,2.8,0.5,4.2c0.2,1.1,0.7,2.2,1.5,3v0.8h-7
		c-0.8-0.7-1.3-1.9-1.5-3.4c-0.2-1.6-0.4-3.1-0.4-4.7v-4.1c0-2.7-0.6-4.9-1.9-6.5c-1.3-1.6-3-2.4-5.3-2.4L-94.9,153.4L-94.9,153.4z
		 M-94.9,148.2h7.3c2.8,0,4.9-0.7,6.3-2.2c1.3-1.5,2-3.6,2-6.3c0-2.8-0.7-5-2-6.5s-3.3-2.3-6-2.3h-7.6V148.2L-94.9,148.2z"/>
</g>
<rect y="-5.1" class="st2" width="300" height="306.1"/>
<g>
	<path class="st0" d="M63.6,165.6h0.2l11.7-40h8.7v49h-6.8v-35.3h-0.2L66,174.6h-4.7L50,138.7h-0.2v35.8H43v-49h8.9L63.6,165.6z"/>
	<path class="st0" d="M122.7,162.2H108l-3.5,12.4h-7.1l14.7-49h6.6l14.6,49h-7.1L122.7,162.2z M109.6,156.8h11.6l-5.7-19.9h-0.2
		L109.6,156.8z"/>
	<path class="st0" d="M170.8,130.8h-13v43.7h-6.9v-43.7H138v-5.2h32.7L170.8,130.8L170.8,130.8z"/>
	<path class="st0" d="M202.5,162.2h-14.6l-3.5,12.4h-7.1l14.7-49h6.6l14.6,49h-7.1L202.5,162.2z M189.4,156.8H201l-5.7-19.9h-0.2
		L189.4,156.8z"/>
	<path class="st0" d="M232.5,153.4v21.1h-6.8v-49h14.4c4.7,0,8.4,1.2,10.9,3.6c2.6,2.4,3.9,5.8,3.9,10.3c0.1,2.4-0.6,4.7-1.8,6.7
		s-3,3.5-5.2,4.5c2.5,0.9,4.3,2.3,5.4,4.2c1.1,2,1.7,4.4,1.7,7.4v4.3c0,1.4,0.2,2.8,0.5,4.2c0.2,1.1,0.7,2.2,1.5,3v0.8h-7
		c-0.8-0.7-1.3-1.9-1.5-3.4c-0.2-1.6-0.4-3.1-0.4-4.7v-4.1c0-2.7-0.6-4.9-1.9-6.5c-1.3-1.6-3-2.4-5.3-2.4L232.5,153.4L232.5,153.4z
		 M232.5,148.2h7.3c2.8,0,4.9-0.7,6.3-2.2c1.3-1.5,2-3.6,2-6.3c0-2.8-0.7-5-2-6.5s-3.3-2.3-6-2.3h-7.6V148.2L232.5,148.2z"/>
</g>
</svg>
