<?xml version="1.0" encoding="utf-8"?>
<!-- Generator: Adobe Illustrator 19.2.0, SVG Export Plug-In . SVG Version: 6.00 Build 0)  -->
<svg version="1.1" id="Ebene_1" xmlns="http://www.w3.org/2000/svg" xmlns:xlink="http://www.w3.org/1999/xlink" x="0px" y="0px"
	 viewBox="0 0 300 300" style="enable-background:new 0 0 300 300;" xml:space="preserve">
<style type="text/css">
	.st0{fill:#FFFFFF;}
	.st1{fill:#1D1D1B;stroke:#000000;stroke-miterlimit:10;}
	.st2{fill:#1D1D1B;}
</style>
<title>Name_MATAR</title>
<path class="st0" d="M-26.6-467.9h0.4l25.6-87h19v106.6H3.6v-76.8l-0.4-0.1l-24.5,76.9h-10.2l-24.8-78.1l-0.4,0.1v78h-14.8v-106.6
	h19.5L-26.6-467.9z"/>
<path class="st0" d="M101.9-475.1H70l-7.7,27H46.9l32-106.6h14.4L125-448.1h-15.5L101.9-475.1z M73.4-486.9h25.2l-12.3-43.4h-0.4
	L73.4-486.9z"/>
<path class="st0" d="M206.6-543.5h-28.3v95.2h-14.9v-95.2h-28v-11.4h71.3L206.6-543.5L206.6-543.5z"/>
<path class="st0" d="M275.7-475.1h-31.9l-7.7,27h-15.5l32-106.6h14.4l31.7,106.6h-15.5L275.7-475.1z M247.2-486.9h25.2l-12.3-43.4
	h-0.4L247.2-486.9z"/>
<path class="st0" d="M340.9-494.1v45.9H326v-106.6h31.4c10.3,0,18.2,2.6,23.8,7.8c5.6,5.2,8.4,12.7,8.4,22.5
	c0.1,5.1-1.2,10.2-3.9,14.6c-2.7,4.3-6.6,7.6-11.2,9.7c5.5,1.9,9.4,4.9,11.8,9.2c2.4,4.3,3.6,9.6,3.6,16v9.3c0,3.1,0.3,6.2,1,9.2
	c0.5,2.5,1.6,4.8,3.4,6.6v1.7h-15.3c-1.7-1.6-2.7-4.1-3.3-7.4c-0.5-3.4-0.8-6.8-0.8-10.2v-9c0-6-1.4-10.7-4.1-14.1
	s-6.6-5.2-11.5-5.2L340.9-494.1L340.9-494.1z M340.9-505.5h15.8c6.2,0,10.7-1.6,13.6-4.9c2.9-3.2,4.4-7.8,4.4-13.8
	c0-6.1-1.4-10.8-4.3-14.2c-2.9-3.4-7.2-5.1-13-5h-16.5L340.9-505.5L340.9-505.5z"/>
<rect x="-92.5" y="-365.5" class="st1" width="508" height="145"/>
<g>
	<path class="st0" d="M-26.5-259.4h0.4l25.6-87h19v106.6H3.7v-76.8l-0.4-0.1l-24.5,76.9h-10.2l-24.8-78.1l-0.4,0.1v78h-14.8v-106.6
		H-52L-26.5-259.4z"/>
	<path class="st0" d="M101.9-266.6H70.1l-7.7,27H46.9l32-106.6h14.4l31.7,106.6h-15.5L101.9-266.6z M73.4-278.4h25.2l-12.3-43.4
		h-0.4L73.4-278.4z"/>
	<path class="st0" d="M206.7-334.9h-28.3v95.2h-14.9v-95.2h-28v-11.4h71.3L206.7-334.9L206.7-334.9z"/>
	<path class="st0" d="M275.8-266.6h-31.9l-7.7,27h-15.5l32-106.6h14.4l31.7,106.6h-15.5L275.8-266.6z M247.3-278.4h25.2l-12.3-43.4
		h-0.4L247.3-278.4z"/>
	<path class="st0" d="M340.9-285.6v45.9h-14.9v-106.6h31.4c10.3,0,18.2,2.6,23.8,7.8c5.6,5.2,8.4,12.7,8.4,22.5
		c0.1,5.1-1.2,10.2-3.9,14.6c-2.7,4.3-6.6,7.6-11.2,9.7c5.5,1.9,9.4,4.9,11.8,9.2s3.6,9.6,3.6,16v9.3c0,3.1,0.3,6.2,1,9.2
		c0.5,2.5,1.6,4.8,3.4,6.6v1.7H379c-1.7-1.6-2.7-4.1-3.3-7.4c-0.5-3.4-0.8-6.8-0.8-10.2v-9c0-6-1.4-10.7-4.1-14.1s-6.6-5.2-11.5-5.2
		L340.9-285.6L340.9-285.6z M340.9-297h15.8c6.2,0,10.7-1.6,13.6-4.9c2.9-3.2,4.4-7.8,4.4-13.8c0-6.1-1.4-10.8-4.3-14.2
		c-2.9-3.4-7.2-5.1-13-5h-16.5L340.9-297L340.9-297z"/>
</g>
<g>
	<path class="st2" d="M-27-76.4h0.4l25.6-87h19v106.6H3.3v-76.8l-0.4-0.1l-24.5,76.9h-10.2l-24.8-78.1l-0.4,0.1v78h-14.8v-106.6
		h19.5L-27-76.4z"/>
	<path class="st2" d="M101.5-83.6H69.6l-7.7,27H46.5l32-106.6h14.4l31.7,106.6h-15.5L101.5-83.6z M73-95.4h25.2l-12.3-43.4h-0.4
		L73-95.4z"/>
	<path class="st2" d="M206.2-151.9h-28.3v95.2H163v-95.2h-28v-11.4h71.3L206.2-151.9L206.2-151.9z"/>
	<path class="st2" d="M275.3-83.6h-31.9l-7.7,27h-15.5l32-106.6h14.4l31.7,106.6H283L275.3-83.6z M246.8-95.4h25.2l-12.3-43.4h-0.4
		L246.8-95.4z"/>
	<path class="st2" d="M340.5-102.6v45.9h-14.9v-106.6h31.4c10.3,0,18.2,2.6,23.8,7.8s8.4,12.7,8.4,22.5c0.1,5.1-1.2,10.2-3.9,14.6
		c-2.7,4.3-6.6,7.6-11.2,9.7c5.5,1.9,9.4,4.9,11.8,9.2c2.4,4.3,3.6,9.6,3.6,16v9.3c0,3.1,0.3,6.2,1,9.2c0.5,2.5,1.6,4.8,3.4,6.6v1.7
		h-15.3c-1.7-1.6-2.7-4.1-3.3-7.4c-0.5-3.4-0.8-6.8-0.8-10.2v-9c0-6-1.4-10.7-4.1-14.1s-6.6-5.2-11.5-5.2L340.5-102.6L340.5-102.6z
		 M340.5-114h15.8c6.2,0,10.7-1.6,13.6-4.9c2.9-3.2,4.4-7.8,4.4-13.8c0-6.1-1.4-10.8-4.3-14.2c-2.9-3.4-7.2-5.1-13-5h-16.5
		L340.5-114L340.5-114z"/>
</g>
<rect y="1" class="st0" width="300" height="300"/>
<g>
	<path class="st2" d="M63.6,165.5h0.2l11.7-40h8.7v49h-6.8v-35.3l-0.2,0l-11.2,35.3h-4.7L50,138.6l-0.2,0v35.8H43v-49h8.9
		L63.6,165.5z"/>
	<path class="st2" d="M122.7,162.1H108l-3.5,12.4h-7.1l14.7-49h6.6l14.6,49h-7.1L122.7,162.1z M109.6,156.7h11.6l-5.7-19.9h-0.2
		L109.6,156.7z"/>
	<path class="st2" d="M170.8,130.7h-13v43.7h-6.9v-43.7H138v-5.2h32.7L170.8,130.7L170.8,130.7z"/>
	<path class="st2" d="M202.5,162.1h-14.6l-3.5,12.4h-7.1l14.7-49h6.6l14.6,49h-7.1L202.5,162.1z M189.4,156.7H201l-5.7-19.9h-0.2
		L189.4,156.7z"/>
	<path class="st2" d="M232.5,153.4v21.1h-6.8v-49h14.4c4.7,0,8.4,1.2,10.9,3.6c2.6,2.4,3.9,5.8,3.9,10.3c0.1,2.4-0.6,4.7-1.8,6.7
		c-1.2,2-3,3.5-5.2,4.5c2.5,0.9,4.3,2.3,5.4,4.2c1.1,2,1.7,4.4,1.7,7.4v4.3c0,1.4,0.2,2.8,0.5,4.2c0.2,1.1,0.7,2.2,1.5,3v0.8h-7
		c-0.8-0.7-1.3-1.9-1.5-3.4c-0.2-1.6-0.4-3.1-0.4-4.7v-4.1c0-2.7-0.6-4.9-1.9-6.5c-1.3-1.6-3-2.4-5.3-2.4L232.5,153.4L232.5,153.4z
		 M232.5,148.2h7.3c2.8,0,4.9-0.7,6.3-2.2c1.3-1.5,2-3.6,2-6.3c0-2.8-0.7-5-2-6.5c-1.3-1.5-3.3-2.3-6-2.3h-7.6L232.5,148.2
		L232.5,148.2z"/>
</g>
</svg>
